<?xml version="1.0" encoding="utf-8"?>
<!-- Generator: Adobe Illustrator 28.3.0, SVG Export Plug-In . SVG Version: 6.00 Build 0)  -->
<svg version="1.1" id="Layer_1" xmlns="http://www.w3.org/2000/svg" xmlns:xlink="http://www.w3.org/1999/xlink" x="0px" y="0px"
	 viewBox="0 0 1080 1080" style="enable-background:new 0 0 1080 1080;" xml:space="preserve">
<style type="text/css">
	.st0{fill:#FE705A;}
	.st1{fill:#FFFFFF;stroke:#FFFFFF;stroke-width:0.2455;stroke-linecap:round;stroke-miterlimit:10;}
	.st2{fill:#FFFFFF;stroke:#FFFFFF;stroke-width:0.2753;stroke-linecap:round;stroke-miterlimit:10;}
</style>
<path class="st0" d="M3.4,350.5c0-140,86.3-266.2,222.3-299.6C453.1-4.9,796.3-50.9,965.3,118.1c142.6,142.6,132.1,409.5,91.7,626
	c-38.5,206.4-230.5,336-440.4,336H172.1c-93.2,0-168.8-75.6-168.8-168.8L3.4,350.5L3.4,350.5z"/>
<path class="st1" d="M371,469c0-0.5-1.6-0.8-4.9-0.8s-5.9,0.3-7.9,0.8c-17.6,6.5-31.7,12.2-42.5,16.9c-10.8,4.8-19.9,8.9-27.5,12.4
	c-7.5,3.5-14.3,6.7-20.3,9.4c-6,2.8-12.8,5.5-20.3,8.3s-16.9,5.5-28.2,8.3s-26,6.1-44,10.2v261c0,9-2,13.8-6,14.3s-8.4-1.4-13.2-5.6
	c-4.8-4.3-9.3-9.8-13.5-16.5c-4.3-6.8-6.4-12.9-6.4-18.4c-0.5-11.5-1.3-25.4-2.3-41.7s-1.9-33.1-2.6-50.4
	c-0.8-17.3-1.6-34.5-2.6-51.5c-1-17-1.9-32.3-2.6-45.9c-0.8-13.5-1.6-28.6-2.6-45.1l-65.4-26.3c-1-0.5-1.5-2.3-1.5-5.3
	s0.5-5.8,1.5-8.3c2.5-5,6.6-9.1,12.4-12.4c5.8-3.3,11.9-5.8,18.4-7.5c6.5-1.8,12.9-3,19.2-3.8c6.3-0.8,11.4-1.4,15.4-1.9
	c0-7.5,0.5-20.6,1.5-39.1s2.3-38.2,3.8-59c1.5-20.8,2.9-40.5,4.1-59s2.4-31.3,3.4-38.4c0-1.5,1.4-5.4,4.1-11.7
	c2.7-6.3,6-13.2,9.8-20.7s7.9-14.5,12.4-21.1c4.5-6.5,8.7-11,12.4-13.5c3.8-2.5,6.9-1.9,9.4,1.9c2.5,3.8,3.8,12.2,3.8,25.2
	c0,3-0.6,9.7-1.9,19.9c-1.3,10.3-2.8,21.2-4.5,32.7c-1.8,11.5-3.3,22.4-4.5,32.7c-1.3,10.3-1.9,16.9-1.9,19.9
	c-0.5,5.5-0.9,14.9-1.1,28.2c-0.3,13.3-0.4,27.6-0.4,42.9s0.1,29.7,0.4,43.3c0.2,13.5,0.6,23.1,1.1,28.6c12.5,3,29.1,3.5,49.6,1.5
	c20.6-2,41.2-6.1,62.1-12.4c20.8-6.3,40.2-14,58.3-23.3c18.1-9.3,31.1-19.4,39.1-30.5c9.5-14,16.8-30.1,21.8-48.1
	c5-18.1,9.5-36.5,13.5-55.3s9-37.5,15-56s15-35.4,27.1-50.4c14.5-17.5,29-29.6,43.3-36.1s27.5-8.9,39.5-7.1c12,1.8,22.4,7,31.2,15.8
	s14.5,19.4,17.3,32c2.8,12.5,2.3,26.5-1.5,41.7c-3.8,15.3-12.2,30.5-25.2,45.5c-3.5,4-8.9,9.8-16.2,17.3s-15.6,16.1-24.8,25.6
	c-9.3,9.5-19.1,19.6-29.3,30.1c-10.3,10.5-20.2,20.4-29.7,29.7c-9.5,9.3-18.2,17.7-26,25.2s-13.4,13-16.9,16.5c-3,30.1-4,61.4-3,94
	c1,32.6,3.5,65.2,7.5,97.8s9,64.7,15,96.3s12.3,61.7,18.8,90.3h-51.2L371,469z M462,286.2c-1,3.5-2.8,9.5-5.3,18.1
	c-2.5,8.5-5.1,17.7-7.9,27.5s-5.3,19.1-7.5,27.8c-2.3,8.8-3.9,14.9-4.9,18.4c15-7.5,29-18.1,41.7-31.6
	c12.8-13.5,23.9-27.8,33.5-42.9c9.5-15,17.4-29.8,23.7-44.4c6.3-14.5,10.3-26.8,12-36.9c1.8-10,1.1-16.8-1.9-20.3s-9-1.8-18.1,5.3
	c-13,11-25.7,22.8-38,35.4C477.2,255.1,468,269.6,462,286.2z"/>
<path class="st2" d="M708.8,884c1-19.1,1.5-39.3,1.8-60.6c0.2-21.3-0.1-42.7-1.1-64.2s-2.5-42.9-4.7-64.2s-5.1-41.5-9-60.6
	c-6.7-34.9-15.2-61.6-25.5-80S649.2,526.2,638,525s-21.8,6.2-31.6,22.2s-17.3,41-22.6,75c-1,5.3-2.2,13.4-3.6,24.4
	c-1.4,11-3,23.4-4.7,37.3c-1.7,13.9-3.4,28.6-5,44.1c-1.7,15.6-3.4,30.3-5,44.1c-1.7,13.9-3,26.3-3.9,37.3c-1,11-1.7,19.1-2.2,24.4
	c-2.9,7.7-8.3,12.2-16.1,13.6c-7.9,1.4-15.2,1-21.9-1.4L497,472.9c-0.5-6.2,1-11.6,4.3-16.1s7.2-7.6,11.5-9.3
	c4.3-1.7,8.6-1.5,12.9,0.4c4.3,1.9,7.2,6.2,8.6,12.9L559.4,572c14.8-35.9,28.6-61.3,41.3-76.4s24.5-22.8,35.5-23.3
	s21.5,4.8,31.6,15.8c10,11,19.5,24.3,28.3,39.8s17.3,32,25.5,49.5c8.1,17.5,16.3,32.4,24.4,44.8c19.6-67.4,42-116.1,67.1-146
	s49.3-42.2,72.5-36.9c23.2,5.3,43.6,27.6,61.3,67.1s29.4,94.8,35.2,166.1c1,11,1.7,25.5,2.2,43.4s0.7,35.5,0.7,52.7
	s-0.2,32.2-0.7,44.8c-0.5,12.7-1.2,19.5-2.2,20.4L969.9,846l-25.1-24.4c2.9-24.9,3.7-50.8,2.5-77.8s-3.8-54.2-7.9-81.4
	c-4.1-27.3-9-53.8-14.7-79.6s-11.5-50-17.2-72.5c-6.7-19.1-14.8-30.2-24.4-33.4c-9.6-3.1-19.3-1.4-29.1,5
	c-9.8,6.5-18.8,16-26.9,28.7c-8.1,12.7-14.3,25-18.7,36.9c-2.9,7.2-6.3,16.7-10.4,28.7c-4.1,12-8,23.9-11.8,35.9s-7.2,22.5-10,31.6
	c-2.9,9.1-4.6,14.3-5,15.8c-1.9,8.6-4.2,23.4-6.8,44.5s-5.3,43.5-7.9,67.4c-2.6,23.9-4.9,46.5-6.8,67.8c-1.9,21.3-3.1,36.2-3.6,44.8
	c0,7.2-1.9,11.2-5.7,12.2s-8.1,0.5-12.9-1.4C722.1,892.8,715.9,889.2,708.8,884z"/>
</svg>
